<svg version="1.1" preserveAspectRatio="none" xmlns="http://www.w3.org/2000/svg" width="500" height="500" viewBox="0 0 500 500"><rect width="100%" height="100%" fill="#FFFFFF" fill-opacity="1"/><svg viewBox="-48.5553 132.6998 495.2355 100" width="333" height="67.24073698270823" x="83.5px" y="216.3796px" xmlns="http://www.w3.org/2000/svg" xmlns:xlink="http://www.w3.org/1999/xlink" preserveAspectRatio="none"><defs></defs><style>.background {fill:#FFFFFF;fill-opacity:1;}.companyName {fill:#0C0C0C;fill-opacity:1;}.icon3 {fill:#6F5CF3;fill-opacity:1;}.icon3-str {stroke:#6F5CF3;stroke-opacity:1;}.shape {fill:#F55649;fill-opacity:1;}.text-str {stroke:#0C0C0C;stroke-opacity:1;}</style><g opacity="1" transform="rotate(0 54.4446 132.6998)">
<svg width="392.2356" height="100" x="54.4446" y="132.6998" version="1.1" preserveAspectRatio="none" viewBox="0 0 392.2356 100">
  <defs><rect x="0" y="0" width="392.2356" height="100" rx="0px" ry="0px" id="id-B7crM0kCi1764339251969"></rect></defs><use class="companyName text-str" style="stroke-width:0;" xlink:href="#id-B7crM0kCi1764339251969"></use>
</svg>
</g><g opacity="1" transform="rotate(0 84.4446 162.6998)">
<svg width="332.2356" height="40" x="84.4446" y="162.6998" version="1.1" preserveAspectRatio="none" viewBox="1.5234 -32.4023 354.78520000000003 42.7148">
  <g transform="matrix(1 0 0 1 0 0)" class="background"><path id="id-D6z1nYkh13" d="M7.09 0L7.09-18.71L1.52-18.71L1.52-23.05L7.09-23.05L7.09-30.21L12.87-30.21L12.87-23.05L18.44-23.05L18.44-18.71L12.87-18.71L12.87 0L7.09 0Z M22.19-11.52L22.19-11.52Q22.19-14.00 23.19-16.17Q24.20-18.34 26.06-19.96Q27.93-21.58 30.58-22.52Q33.22-23.46 36.52-23.46L36.52-23.46Q39.82-23.46 42.47-22.52Q45.12-21.58 46.98-19.96Q48.85-18.34 49.85-16.17Q50.86-14.00 50.86-11.52L50.86-11.52Q50.86-9.04 49.85-6.88Q48.85-4.71 46.98-3.09Q45.12-1.46 42.47-0.53Q39.82 0.41 36.52 0.41L36.52 0.41Q33.22 0.41 30.58-0.53Q27.93-1.46 26.06-3.09Q24.20-4.71 23.19-6.88Q22.19-9.04 22.19-11.52ZM28.26-11.52L28.26-11.52Q28.26-10.14 28.82-8.90Q29.38-7.66 30.44-6.71Q31.50-5.76 33.04-5.21Q34.57-4.65 36.52-4.65L36.52-4.65Q38.48-4.65 40.01-5.21Q41.54-5.76 42.61-6.71Q43.67-7.66 44.23-8.90Q44.79-10.14 44.79-11.52L44.79-11.52Q44.79-12.91 44.23-14.16Q43.67-15.41 42.61-16.36Q41.54-17.30 40.01-17.86Q38.48-18.42 36.52-18.42L36.52-18.42Q34.57-18.42 33.04-17.86Q31.50-17.30 30.44-16.36Q29.38-15.41 28.82-14.16Q28.26-12.91 28.26-11.52Z M56.54 0L56.54-32.40L62.32-32.40L62.32-20.88Q63.09-21.41 64.12-21.88Q65.16-22.34 66.35-22.70Q67.54-23.05 68.81-23.25Q70.08-23.46 71.35-23.46L71.35-23.46Q74.28-23.46 76.73-22.60Q79.18-21.74 80.94-20.18Q82.70-18.61 83.68-16.44Q84.67-14.26 84.67-11.62L84.67-11.62Q84.67-8.87 83.63-6.65Q82.60-4.43 80.77-2.86Q78.95-1.29 76.44-0.44Q73.93 0.41 71.00 0.41L71.00 0.41Q69.75 0.41 68.53 0.25Q67.30 0.10 66.18-0.18Q65.06-0.45 64.07-0.83Q63.09-1.21 62.32-1.66L62.32-1.66L62.32 0L56.54 0ZM62.32-15.23L62.32-7.25Q63.20-6.54 64.18-6.05Q65.16-5.57 66.17-5.25Q67.19-4.94 68.22-4.79Q69.26-4.65 70.23-4.65L70.23-4.65Q72.23-4.65 73.78-5.19Q75.33-5.72 76.40-6.66Q77.46-7.60 78.03-8.87Q78.59-10.14 78.59-11.62L78.59-11.62Q78.59-13.01 78.04-14.24Q77.48-15.47 76.44-16.40Q75.39-17.32 73.92-17.86Q72.44-18.40 70.61-18.40L70.61-18.40Q69.43-18.40 68.26-18.17Q67.09-17.95 66.01-17.54Q64.92-17.13 63.97-16.54Q63.03-15.96 62.32-15.23L62.32-15.23Z M93.07-26.19L93.07-26.19Q92.21-26.19 91.51-26.44Q90.82-26.68 90.33-27.10Q89.84-27.52 89.58-28.08Q89.32-28.63 89.32-29.26L89.32-29.26Q89.32-29.90 89.58-30.46Q89.84-31.02 90.33-31.43Q90.82-31.84 91.51-32.08Q92.21-32.32 93.07-32.32L93.07-32.32Q93.95-32.32 94.64-32.08Q95.33-31.84 95.82-31.43Q96.31-31.02 96.57-30.46Q96.84-29.90 96.84-29.26L96.84-29.26Q96.84-28.63 96.57-28.08Q96.31-27.52 95.82-27.10Q95.33-26.68 94.64-26.44Q93.95-26.19 93.07-26.19ZM90.18 0L90.18-23.05L95.96-23.05L95.96 0L90.18 0Z M115.55-7.27L115.55-7.27Q115.55-8.93 116.27-10.29Q116.99-11.66 118.44-12.65Q119.88-13.63 122.04-14.17Q124.20-14.71 127.07-14.71L127.07-14.71Q129.20-14.71 131.55-14.39Q133.91-14.08 136.41-13.44L136.41-13.44Q136.31-14.53 135.74-15.46Q135.18-16.39 134.17-17.06Q133.16-17.73 131.75-18.11Q130.33-18.48 128.54-18.48L128.54-18.48Q127.56-18.48 126.39-18.36Q125.21-18.24 123.96-18.01Q122.71-17.77 121.49-17.42Q120.27-17.07 119.22-16.58L119.22-16.58L117.46-21.33Q118.77-21.80 120.26-22.19Q121.76-22.58 123.32-22.86Q124.88-23.14 126.45-23.30Q128.01-23.46 129.47-23.46L129.47-23.46Q135.94-23.46 139.08-20.16Q142.23-16.86 142.23-10.04L142.23-10.04L142.23 0L136.45 0L136.45-2.17Q135.55-1.64 134.48-1.17Q133.42-0.70 132.17-0.35Q130.92 0 129.48 0.21Q128.05 0.41 126.45 0.41L126.45 0.41Q123.75 0.41 121.71-0.18Q119.67-0.76 118.30-1.80Q116.93-2.83 116.24-4.23Q115.55-5.63 115.55-7.27ZM121.64-7.46L121.64-7.46Q121.64-6.89 121.93-6.38Q122.23-5.86 122.87-5.46Q123.52-5.06 124.52-4.81Q125.53-4.57 126.95-4.57L126.95-4.57Q128.48-4.57 129.90-4.84Q131.33-5.12 132.56-5.57Q133.79-6.02 134.79-6.60Q135.78-7.19 136.45-7.81L136.45-7.81L136.45-8.83Q135.12-9.20 133.82-9.45Q132.52-9.71 131.34-9.85Q130.16-10 129.11-10.06Q128.07-10.12 127.29-10.12L127.29-10.12Q125.66-10.12 124.59-9.90Q123.52-9.69 122.85-9.33Q122.19-8.96 121.91-8.48Q121.64-7.99 121.64-7.46Z M148.09-11.43L148.09-11.43Q148.09-14.18 149.12-16.40Q150.16-18.61 151.98-20.19Q153.81-21.76 156.32-22.61Q158.83-23.46 161.76-23.46L161.76-23.46Q163.01-23.46 164.23-23.30Q165.45-23.14 166.57-22.87Q167.70-22.60 168.68-22.22Q169.67-21.84 170.43-21.39L170.43-21.39L170.43-32.40L176.21-32.40L176.21 0L170.43 0L170.43-2.17Q169.67-1.64 168.63-1.17Q167.60-0.70 166.41-0.35Q165.21 0 163.94 0.21Q162.66 0.41 161.41 0.41L161.41 0.41Q158.48 0.41 156.03-0.45Q153.57-1.31 151.82-2.87Q150.06-4.43 149.07-6.61Q148.09-8.79 148.09-11.43ZM154.16-11.43L154.16-11.43Q154.16-10.04 154.72-8.81Q155.27-7.58 156.32-6.65Q157.36-5.72 158.84-5.19Q160.31-4.65 162.15-4.65L162.15-4.65Q163.32-4.65 164.49-4.87Q165.66-5.10 166.75-5.51Q167.83-5.92 168.78-6.50Q169.73-7.09 170.43-7.81L170.43-7.81L170.43-15.80Q169.55-16.50 168.57-16.99Q167.60-17.48 166.58-17.79Q165.57-18.11 164.53-18.25Q163.50-18.40 162.52-18.40L162.52-18.40Q160.53-18.40 158.97-17.86Q157.42-17.32 156.36-16.39Q155.29-15.45 154.73-14.18Q154.16-12.91 154.16-11.43Z M182.19-11.60L182.19-11.60Q182.19-13.95 183.14-16.08Q184.10-18.22 185.90-19.86Q187.70-21.50 190.30-22.48Q192.91-23.46 196.23-23.46L196.23-23.46Q199.53-23.46 202.18-22.47Q204.82-21.48 206.67-19.77Q208.52-18.05 209.50-15.72Q210.49-13.40 210.49-10.74L210.49-10.74Q210.49-10.41 210.48-10.03Q210.47-9.65 210.43-9.34L210.43-9.34L188.63-9.34Q189.00-8.30 189.83-7.44Q190.66-6.58 191.91-5.96Q193.16-5.33 194.80-4.99Q196.45-4.65 198.44-4.65L198.44-4.65Q200.43-4.65 202.40-5.07Q204.38-5.49 206.17-6.13L206.17-6.13L208.13-1.72Q206.99-1.19 205.83-0.79Q204.67-0.39 203.41-0.13Q202.15 0.14 200.77 0.27Q199.39 0.41 197.87 0.41L197.87 0.41Q193.98 0.41 191.05-0.53Q188.13-1.46 186.15-3.09Q184.18-4.71 183.18-6.89Q182.19-9.08 182.19-11.60ZM188.63-13.85L204.36-13.85Q204.04-14.80 203.39-15.63Q202.73-16.46 201.76-17.08Q200.78-17.70 199.49-18.05Q198.20-18.40 196.66-18.40L196.66-18.40Q195.02-18.40 193.67-18.03Q192.32-17.66 191.31-17.03Q190.29-16.41 189.62-15.59Q188.95-14.77 188.63-13.85L188.63-13.85Z M214.92-11.43L214.92-11.43Q214.92-14.18 215.96-16.40Q216.99-18.61 218.82-20.19Q220.64-21.76 223.15-22.61Q225.66-23.46 228.59-23.46L228.59-23.46Q229.84-23.46 231.06-23.30Q232.29-23.14 233.41-22.87Q234.53-22.60 235.52-22.22Q236.50-21.84 237.27-21.39L237.27-21.39L237.27-32.40L243.05-32.40L243.05 0L237.27 0L237.27-2.17Q236.50-1.64 235.47-1.17Q234.43-0.70 233.24-0.35Q232.05 0 230.77 0.21Q229.49 0.41 228.24 0.41L228.24 0.41Q225.31 0.41 222.86-0.45Q220.41-1.31 218.65-2.87Q216.89-4.43 215.91-6.61Q214.92-8.79 214.92-11.43ZM221.00-11.43L221.00-11.43Q221.00-10.04 221.55-8.81Q222.11-7.58 223.15-6.65Q224.20-5.72 225.67-5.19Q227.15-4.65 228.98-4.65L228.98-4.65Q230.16-4.65 231.33-4.87Q232.50-5.10 233.58-5.51Q234.67-5.92 235.62-6.50Q236.56-7.09 237.27-7.81L237.27-7.81L237.27-15.80Q236.39-16.50 235.41-16.99Q234.43-17.48 233.42-17.79Q232.40-18.11 231.37-18.25Q230.33-18.40 229.36-18.40L229.36-18.40Q227.36-18.40 225.81-17.86Q224.26-17.32 223.19-16.39Q222.13-15.45 221.56-14.18Q221.00-12.91 221.00-11.43Z M248.73-11.52L248.73-11.52Q248.73-14.00 249.74-16.17Q250.74-18.34 252.61-19.96Q254.47-21.58 257.12-22.52Q259.77-23.46 263.07-23.46L263.07-23.46Q266.37-23.46 269.01-22.52Q271.66-21.58 273.53-19.96Q275.39-18.34 276.40-16.17Q277.40-14.00 277.40-11.52L277.40-11.52Q277.40-9.04 276.40-6.88Q275.39-4.71 273.53-3.09Q271.66-1.46 269.01-0.53Q266.37 0.41 263.07 0.41L263.07 0.41Q259.77 0.41 257.12-0.53Q254.47-1.46 252.61-3.09Q250.74-4.71 249.74-6.88Q248.73-9.04 248.73-11.52ZM254.80-11.52L254.80-11.52Q254.80-10.14 255.36-8.90Q255.92-7.66 256.98-6.71Q258.05-5.76 259.58-5.21Q261.11-4.65 263.07-4.65L263.07-4.65Q265.02-4.65 266.55-5.21Q268.09-5.76 269.15-6.71Q270.21-7.66 270.77-8.90Q271.33-10.14 271.33-11.52L271.33-11.52Q271.33-12.91 270.77-14.16Q270.21-15.41 269.15-16.36Q268.09-17.30 266.55-17.86Q265.02-18.42 263.07-18.42L263.07-18.42Q261.11-18.42 259.58-17.86Q258.05-17.30 256.98-16.36Q255.92-15.41 255.36-14.16Q254.80-12.91 254.80-11.52Z M283.85 7.77L286.00 2.89Q286.89 3.48 287.95 3.93Q289.00 4.38 290.15 4.67Q291.29 4.96 292.48 5.11Q293.67 5.25 294.84 5.25L294.84 5.25Q298.83 5.25 300.99 3.54Q303.14 1.84 303.14-1.58L303.14-1.58L303.14-2.36Q302.38-1.84 301.44-1.40Q300.49-0.96 299.40-0.64Q298.32-0.33 297.12-0.17Q295.92 0 294.69 0L294.69 0Q292.05 0 289.97-0.77Q287.89-1.54 286.46-3.04Q285.02-4.53 284.26-6.72Q283.50-8.91 283.50-11.72L283.50-11.72L283.50-23.05L289.26-23.05L289.26-13.32Q289.26-9.14 290.85-7.16Q292.44-5.18 295.88-5.18L295.88-5.18Q298.30-5.18 300.17-6.03Q302.03-6.88 303.14-8.20L303.14-8.20L303.14-23.05L308.93-23.05L308.93-2.64Q308.93 0.66 307.99 3.10Q307.05 5.53 305.26 7.13Q303.48 8.73 300.88 9.52Q298.28 10.31 294.98 10.31L294.98 10.31Q291.76 10.31 288.96 9.63Q286.17 8.95 283.85 7.77L283.85 7.77Z M319.45-26.19L319.45-26.19Q318.59-26.19 317.90-26.44Q317.21-26.68 316.72-27.10Q316.23-27.52 315.97-28.08Q315.70-28.63 315.70-29.26L315.70-29.26Q315.70-29.90 315.97-30.46Q316.23-31.02 316.72-31.43Q317.21-31.84 317.90-32.08Q318.59-32.32 319.45-32.32L319.45-32.32Q320.33-32.32 321.03-32.08Q321.72-31.84 322.21-31.43Q322.70-31.02 322.96-30.46Q323.22-29.90 323.22-29.26L323.22-29.26Q323.22-28.63 322.96-28.08Q322.70-27.52 322.21-27.10Q321.72-26.68 321.03-26.44Q320.33-26.19 319.45-26.19ZM316.56 0L316.56-23.05L322.34-23.05L322.34 0L316.56 0Z M329.75 0L329.75-23.05L335.53-23.05L335.53-21.09Q337.83-22.40 339.93-22.93Q342.03-23.46 344.04-23.46L344.04-23.46Q346.68-23.46 348.93-22.69Q351.17-21.91 352.81-20.39Q354.45-18.87 355.38-16.59Q356.31-14.32 356.31-11.33L356.31-11.33L356.31 0L350.55 0L350.55-10.39Q350.55-12.29 350.01-13.78Q349.47-15.27 348.47-16.30Q347.46-17.32 346.03-17.86Q344.59-18.40 342.81-18.40L342.81-18.40Q341.88-18.40 340.89-18.20Q339.90-18.01 338.96-17.65Q338.01-17.29 337.13-16.75Q336.25-16.21 335.53-15.53L335.53-15.53L335.53 0L329.75 0Z"/></g>
</svg>
</g><g opacity="1" transform="rotate(0 -48.5553 132.6998)">
<svg width="99.9999" height="100" x="-48.5553" y="132.6998" version="1.1" preserveAspectRatio="none" viewBox="0 0 99.9999 100">
  <defs><rect x="0" y="0" width="99.9999" height="100" rx="0px" ry="0px" id="id-tBXipXk0b1764339251969"></rect></defs><use class="companyName text-str" style="stroke-width:0;" xlink:href="#id-tBXipXk0b1764339251969"></use>
</svg>
</g><g opacity="1" transform="rotate(0 -28.5553 154.5023)">
<svg width="59.9999" height="56.395" x="-28.5553" y="154.5023" version="1.1" preserveAspectRatio="none" viewBox="13.633002281188965 18.010557174682617 72.72603607177734 68.3564453125">
  <g transform="matrix(1 0 0 1 0 0)" class="icon3"><path d="M85.792,76.467h-8.524l-3.27-3.27l7.386-0.002c0.157,0,0.302-0.063,0.403-0.164c0.104-0.104,0.167-0.248,0.167-0.405  c0.001-0.315-0.254-0.571-0.571-0.571h-8.523l-3.271-3.27l7.382-0.001c0.157,0,0.303-0.063,0.403-0.166  c0.104-0.104,0.167-0.247,0.167-0.404c0.002-0.315-0.253-0.571-0.57-0.571l-8.521,0.002L50.806,50.001l29.509-29.508l-1.646,6.151  c-0.055,0.205,0.008,0.412,0.146,0.552c0.069,0.069,0.156,0.121,0.256,0.147c0.306,0.082,0.619-0.099,0.699-0.404l2.198-8.209  c0.003-0.004,0.003-0.01,0.003-0.014c0.012-0.044,0.018-0.089,0.018-0.134c0.002,0,0-0.002,0-0.002c0-0.044-0.006-0.087-0.018-0.129  c-0.003-0.013-0.008-0.025-0.01-0.036c-0.01-0.032-0.023-0.063-0.039-0.094c-0.006-0.011-0.011-0.022-0.018-0.033  c-0.022-0.038-0.051-0.076-0.084-0.109c-0.033-0.033-0.069-0.06-0.107-0.083c-0.012-0.008-0.021-0.011-0.033-0.019  c-0.029-0.015-0.062-0.028-0.094-0.038c-0.012-0.004-0.023-0.008-0.036-0.011c-0.042-0.01-0.085-0.017-0.129-0.017  c-0.002-0.001-0.003,0-0.003,0c-0.046,0-0.09,0.007-0.134,0.018c-0.005,0.001-0.009,0.001-0.015,0.001l-8.209,2.199  c-0.305,0.083-0.484,0.396-0.402,0.701c0.082,0.305,0.394,0.484,0.699,0.403l6.148-1.648L49.999,49.194L20.492,19.688l6.151,1.646  c0.205,0.055,0.412-0.008,0.552-0.147c0.069-0.069,0.121-0.155,0.147-0.256c0.082-0.305-0.099-0.618-0.404-0.699l-8.209-2.198  c-0.004-0.002-0.01-0.002-0.014-0.003c-0.044-0.011-0.089-0.017-0.134-0.018c0-0.001-0.002,0-0.002,0  c-0.044,0-0.087,0.007-0.129,0.018c-0.013,0.003-0.025,0.008-0.036,0.01c-0.032,0.01-0.063,0.023-0.094,0.039  c-0.011,0.006-0.022,0.011-0.033,0.018c-0.038,0.022-0.076,0.051-0.109,0.084c-0.033,0.033-0.06,0.069-0.083,0.107  c-0.008,0.012-0.011,0.022-0.019,0.034c-0.015,0.029-0.028,0.061-0.038,0.093c-0.004,0.012-0.008,0.024-0.011,0.036  c-0.01,0.042-0.017,0.085-0.017,0.129c-0.001,0.002,0,0.003,0,0.003c0,0.046,0.007,0.09,0.018,0.134  c0.001,0.004,0.001,0.009,0.001,0.015l2.199,8.209c0.083,0.304,0.396,0.484,0.701,0.402c0.305-0.082,0.484-0.394,0.403-0.699  l-1.648-6.149L49.19,50.002L31.549,67.645l-8.521-0.002c-0.316,0.002-0.572,0.256-0.571,0.57c0.001,0.316,0.255,0.57,0.572,0.571  h7.38l-3.271,3.271h-8.522c-0.314-0.002-0.571,0.256-0.571,0.569c0.001,0.315,0.255,0.569,0.572,0.571h7.381l-3.27,3.27h-8.524  c-0.315,0-0.571,0.258-0.571,0.571c0.001,0.315,0.255,0.569,0.572,0.571l8.188-0.002v8.189c0,0.158,0.064,0.303,0.166,0.403  c0.104,0.104,0.247,0.167,0.405,0.167c0.316,0.002,0.572-0.254,0.571-0.57v-8.523l3.27-3.271l-0.001,7.385  c0,0.157,0.063,0.302,0.166,0.403c0.104,0.104,0.248,0.167,0.405,0.167c0.316,0.001,0.572-0.254,0.571-0.571v-8.525l3.27-3.27  l0.001,7.383c0,0.156,0.063,0.301,0.166,0.402c0.104,0.104,0.247,0.167,0.405,0.167c0.315,0.002,0.571-0.253,0.571-0.569  l-0.002-8.522L49.998,50.81l17.643,17.643l-0.002,8.521c0.002,0.316,0.258,0.572,0.571,0.571c0.315-0.001,0.569-0.255,0.571-0.571  v-7.381l3.271,3.271l-0.002,8.521c-0.001,0.314,0.256,0.571,0.57,0.571c0.316-0.002,0.57-0.256,0.572-0.572l-0.002-7.381  l3.271,3.271v8.523c0,0.314,0.257,0.57,0.571,0.57c0.316-0.001,0.57-0.256,0.57-0.571v-8.188h8.188c0.158,0,0.302-0.063,0.403-0.166  c0.104-0.104,0.166-0.246,0.166-0.403C86.363,76.723,86.107,76.466,85.792,76.467z"></path></g>
</svg>
</g></svg></svg>