<svg version="1.1" preserveAspectRatio="none" xmlns="http://www.w3.org/2000/svg" width="500" height="500" viewBox="0 0 500 500"><rect width="100%" height="100%" fill="#000000" fill-opacity="1"/><svg viewBox="33.924 93.4767 323.9946 163.1983" width="333" height="167.73438168413918" x="83.5px" y="166.1328px" xmlns="http://www.w3.org/2000/svg" xmlns:xlink="http://www.w3.org/1999/xlink" preserveAspectRatio="none"><defs></defs><style>.aIptOCySncolors-3 {fill:#050C84;fill-opacity:1;}.aIptOCySncolors-4 {fill:#2733A0;fill-opacity:1;}.aIptOCySncolors-5 {fill:#0B1AAE;fill-opacity:1;}.aIptOCySncolors-6 {fill:#B2A8A8;fill-opacity:1;}.aIptOCySncolors-7 {fill:#F1F1F1;fill-opacity:1;}.companyName {fill:#F1F1F1;fill-opacity:1;}.icon1 {fill:#C9CCF1;fill-opacity:1;}.icon2 {fill:#3342D2;fill-opacity:1;}.icon3 {fill:#5964B8;fill-opacity:1;}.icon3-str {stroke:#5964B8;stroke-opacity:1;}</style><g opacity="1" transform="rotate(0 147.3221 93.4767)">
<svg width="97.1984" height="97.1983" x="147.3221" y="93.4767" version="1.1" preserveAspectRatio="none" viewBox="0 0 100 100">
  <g transform="matrix(1 0 0 1 0 0)" class="icon1"><g fill-rule="evenodd"><path d="m28.332 68.328c-0.42578 0-0.85156-0.16406-1.1758-0.48828l-16.668-16.664c-0.65234-0.64844-0.65234-1.7031 0-2.3516l16.648-16.68c0.65234-0.65234 1.7109-0.64844 2.3594 0 0.65234 0.64844 0.65234 1.7031 0.003906 2.3555l-15.477 15.5 15.488 15.484c0.65234 0.64844 0.65234 1.7031 0 2.3555-0.32422 0.32422-0.75 0.48828-1.1797 0.48828"></path><path d="m71.68 68.344c-0.42578 0-0.85156-0.16406-1.1758-0.48828-0.65234-0.64844-0.65234-1.7031-0.003906-2.3555l15.477-15.5-15.488-15.484c-0.64844-0.64844-0.64844-1.707 0-2.3555 0.65234-0.65234 1.707-0.65234 2.3555 0l16.668 16.66c0.65234 0.65234 0.65234 1.707 0 2.3555l-16.648 16.68c-0.32812 0.32422-0.75391 0.48828-1.1836 0.48828"></path><path d="m55 68.336c-0.16016 0-0.31641-0.023438-0.47656-0.070313-0.88281-0.26562-1.3828-1.1953-1.1211-2.0781l10-33.332c0.26562-0.88281 1.1914-1.3867 2.0742-1.1172 0.88281 0.26172 1.3828 1.1914 1.1211 2.0742l-10 33.332c-0.21875 0.72266-0.87891 1.1914-1.5977 1.1914"></path><path d="m21.668 3.332c-10.109 0-18.336 8.2266-18.336 18.336v56.664c0 10.109 8.2266 18.336 18.336 18.336h56.664c10.109 0 18.336-8.2266 18.336-18.336v-56.664c0-10.109-8.2266-18.336-18.336-18.336zm56.664 96.668h-56.664c-11.949 0-21.668-9.7188-21.668-21.668v-56.664c0-11.949 9.7188-21.668 21.668-21.668h56.664c11.949 0 21.668 9.7188 21.668 21.668v56.664c0 11.949-9.7188 21.668-21.668 21.668z"></path><path d="m48.332 68.332h-11.664c-0.92188 0-1.668-0.74609-1.668-1.6641 0-0.92188 0.74609-1.668 1.668-1.668h11.664c0.92188 0 1.668 0.74609 1.668 1.668 0 0.91797-0.74609 1.6641-1.668 1.6641"></path></g></g>
</svg>
</g><g opacity="1" transform="rotate(0 33.924 216.675)">
<svg width="323.9946" height="40" x="33.924" y="216.675" version="1.1" preserveAspectRatio="none" viewBox="0.9961 -28.5547 300.5782 37.1094">
  <g transform="matrix(1 0 0 1 0 0)" class="companyName"><path id="id-D6z1nYkh13" d="M7.42-0.90L7.42-0.90Q7.42-1.35 8.73-2.02Q10.04-2.70 10.33-4.23Q10.63-5.76 10.63-14.31Q10.63-22.85 10.30-23.83Q9.98-24.80 7.93-24.80Q5.88-24.80 4.96-24.30Q4.04-23.79 3.42-22.81L3.42-22.81Q2.13-20.82 1.91-20.82L1.91-20.82Q1.00-20.82 1.00-21.95L1.00-21.95L1.00-22.54Q1.00-26.54 1.91-27.01L1.91-27.01Q2.27-27.19 12.11-27.19L12.11-27.19L20.14-27.17Q20.78-27.17 21.45-27.19L21.45-27.19L22.73-27.23Q23.73-27.23 24.06-26.74L24.06-26.74Q24.59-25.94 24.59-22.71L24.59-22.71Q24.59-21.05 24.06-21.05L24.06-21.05Q23.34-21.05 22.52-22.45Q21.70-23.85 20.76-24.37Q19.82-24.88 17.71-24.88Q15.61-24.88 15.22-23.93Q14.84-22.97 14.84-13.94Q14.84-4.90 15.06-3.79Q15.27-2.68 15.98-2.09L15.98-2.09Q16.19-1.91 17.00-1.52Q17.81-1.13 17.81-0.80L17.81-0.80Q17.81 0.04 16.46 0.04L16.46 0.04L15.18 0.04L11.35-0.04Q7.42-0.04 7.42-0.90Z M37.28-17.32L37.28-17.32L36.87-17.32Q34.76-17.32 33.30-15.06L33.30-15.06Q32.14-13.28 32.14-9.73L32.14-9.73L32.14-9.49L32.16-9.24Q32.16-3.85 35.05-1.95L35.05-1.95Q36.09-1.29 37.38-1.29L37.38-1.29L37.59-1.31Q39.68-1.31 40.95-3.28Q42.22-5.25 42.22-8.40L42.22-8.40L42.22-9.61Q42.22-13.01 40.83-15.17Q39.43-17.32 37.28-17.32ZM46.38-9.92L46.38-9.92L46.38-8.95Q46.38-7.15 45.64-5.27L45.64-5.27Q44.21-1.62 40.70-0.25L40.70-0.25Q39 0.41 37.44 0.41L37.44 0.41L37.13 0.41L36.79 0.39Q33.12 0.39 30.64-2.09L30.64-2.09Q29.51-3.22 28.85-5.12Q28.20-7.01 28.20-8.67L28.20-8.67L28.20-9.63Q28.20-11.46 28.93-13.32Q29.66-15.18 30.81-16.38Q31.95-17.58 33.69-18.29Q35.43-19.00 37.05-19.00L37.05-19.00L38.00-19.00Q41.38-19.00 43.88-16.50L43.88-16.50Q44.96-15.43 45.67-13.61Q46.38-11.80 46.38-9.92Z M59.27-7.87L59.27-6.99Q59.27-3.67 59.99-2.77L59.99-2.77Q61.09-1.41 63.47-1.41L63.47-1.41L64.11-1.41Q64.86-1.41 65.88-1.97Q66.91-2.54 67.53-3.59L67.53-3.59Q68.82-5.78 68.82-8.95L68.82-8.95L68.82-9.18L68.80-9.41Q68.80-12.79 67.50-14.79Q66.20-16.80 64.05-16.80L64.05-16.80L63.86-16.80Q62.65-16.80 61.46-16.14Q60.27-15.49 59.78-14.60Q59.29-13.71 59.29-8.52L59.29-8.52L59.27-7.87ZM56.83-0.43L56.83-0.43Q55.30-0.43 55.30-2.42L55.30-2.42Q55.30-2.66 55.50-3.96Q55.70-5.25 55.70-8.22L55.70-8.22L55.70-14.28L55.71-15.25L55.71-18.65L55.70-19.61L55.70-20.57L55.66-21.99Q55.64-22.46 55.64-23.61Q55.64-24.77 55.25-25.51L55.25-25.51Q55.05-25.88 54.11-26.30Q53.18-26.72 53.18-27.15Q53.18-27.58 53.64-27.81L53.64-27.81Q54.82-28.42 57.45-28.42L57.45-28.42Q58.76-28.42 59.05-27.25L59.05-27.25Q59.27-26.41 59.27-21.77Q59.27-17.13 60.05-17.13L60.05-17.13Q60.17-17.13 61.99-17.79Q63.82-18.46 65.50-18.46L65.50-18.46Q68.76-18.46 70.76-15.90Q72.77-13.34 72.77-9.77L72.77-9.77L72.77-9.26Q72.77-7.21 72.10-5.35L72.10-5.35Q70.85-1.86 67.79-0.51L67.79-0.51Q66.07 0.25 64.25 0.25L64.25 0.25L63.78 0.25Q62.90 0.25 61.25-0.20Q59.60-0.64 58.37-0.64L58.37-0.64Q57.00-0.43 56.83-0.43Z M82.33-24.92L82.33-24.92L82.33-25.47Q82.37-25.63 82.37-25.93Q82.37-26.23 83.02-26.88Q83.66-27.52 84.32-27.52L84.32-27.52L84.71-27.58L85.03-27.58Q85.83-27.58 86.52-27.00Q87.21-26.43 87.21-25.72L87.21-25.72L87.27-25.25L87.27-25.08L87.20-24.63Q87.20-24.04 86.48-23.46Q85.77-22.87 85.18-22.87L85.18-22.87L84.71-22.81L84.64-22.81L84.56-22.83L84.40-22.83Q84.25-22.87 84.17-22.87L84.17-22.87Q83.60-22.87 82.97-23.51Q82.33-24.14 82.33-24.92ZM83.07 0.14L81.90 0.14Q80.61 0.14 80.61-0.64L80.61-0.64Q80.61-1.15 81.63-1.61Q82.64-2.07 82.89-2.94Q83.13-3.81 83.13-9.02L83.13-9.02L83.15-9.63L83.15-10.23L83.17-10.84L83.17-12.05L83.11-13.85Q83.11-15.41 82.77-15.82Q82.43-16.23 81.43-16.50Q80.44-16.78 80.44-17.29L80.44-17.29Q80.44-17.70 80.87-17.95L80.87-17.95Q82.23-18.77 85.34-18.77L85.34-18.77Q86.47-18.77 86.67-17.97L86.67-17.97Q86.77-17.56 86.77-10.53Q86.77-3.50 86.98-2.74Q87.20-1.99 88.30-1.55Q89.40-1.11 89.40-0.76L89.40-0.76L89.40-0.55Q89.40 0.02 87.70 0.02L87.70 0.02Q87.12 0.06 86.84 0.06L86.84 0.06L85.96 0.08L85.11 0.08L83.07 0.14Z M120.14-9.02L120.14-9.02Q117.60-9.02 116.02-7.79Q114.43-6.56 114.43-5.12L114.43-5.12L114.43-4.45Q114.47-4.22 114.47-4.06L114.47-4.06Q114.47-3.13 115.30-2.48Q116.13-1.84 116.95-1.84L116.95-1.84L117.58-1.84Q118.87-1.84 120.49-2.97L120.49-2.97Q121.66-3.79 121.66-5.04L121.66-5.04Q121.70-5.27 121.70-5.39L121.70-5.39L121.74-5.90L121.74-6.50L121.76-6.88L121.76-8.22Q121.76-9.08 121.25-9.08L121.25-9.08L120.76-9.08Q120.41-9.02 120.14-9.02ZM118.48-19.02L118.48-19.02L118.96-19.02Q123.05-19.02 124.55-16.54L124.55-16.54Q125.47-15.02 125.47-9.47Q125.47-3.93 125.63-3.40L125.63-3.40Q125.88-2.52 126.74-2.23L126.74-2.23Q128.14-1.74 128.14-1.56L128.14-1.56L128.14-1.27Q128.14-0.88 127.25-0.35Q126.35 0.18 124.59 0.18L124.59 0.18Q123.57 0.18 122.75-0.71Q121.93-1.60 121.68-1.60L121.68-1.60Q121.66-1.60 119.51-0.61Q117.36 0.39 116.13 0.39L116.13 0.39L115.21 0.39Q113.34 0.39 112.06-0.93Q110.78-2.25 110.78-3.79L110.78-3.79L110.78-4.28Q110.78-6.74 112.64-8.22L112.64-8.22Q113.91-9.24 116.29-9.90L116.29-9.90Q116.56-9.98 118.44-10.38Q120.31-10.78 120.72-10.98L120.72-10.98Q121.80-11.50 121.80-13.27Q121.80-15.04 120.84-16.06Q119.88-17.09 118.22-17.09Q116.56-17.09 115.33-15.27Q114.10-13.46 112.77-13.46L112.77-13.46Q112.48-13.46 112.03-13.89Q111.58-14.32 111.58-15.23L111.58-15.23Q111.58-16.66 113.11-17.56L113.11-17.56Q115.59-19.02 118.48-19.02Z M143.71-1.72L143.71-1.72L144.31-1.72Q145.21-1.72 146.28-2.28Q147.34-2.83 147.93-3.69Q148.51-4.55 148.51-8.38L148.51-8.38L148.51-12.44Q148.51-14.84 147.87-15.59L147.87-15.59Q146.62-17.03 144.49-17.03L144.49-17.03L144.08-17.03Q142.01-17.03 140.52-15.21Q139.04-13.38 139.04-10.35L139.04-10.35L139-9.88L139-8.69Q139-5.74 140.31-3.73Q141.62-1.72 143.71-1.72ZM148.63-19.02Q148.73-19.34 148.73-22.06Q148.73-24.79 148.39-25.41Q148.06-26.04 147.17-26.44Q146.29-26.84 146.29-27.32L146.29-27.32Q146.29-27.60 146.54-27.79L146.54-27.79Q147.54-28.55 150.27-28.55L150.27-28.55L150.72-28.55Q152.07-28.55 152.30-27.11L152.30-27.11Q152.32-26.99 152.32-15.72Q152.32-4.45 152.48-3.59Q152.63-2.73 153.30-2.27L153.30-2.27Q154.66-1.31 154.66-1.23L154.66-1.23Q154.66-0.74 154.23-0.49L154.23-0.49Q153.18 0.14 151.67 0.14Q150.15 0.14 149.78-0.18Q149.41-0.49 149.04-1.04Q148.67-1.58 148.59-1.58L148.59-1.58Q148.34-1.58 147.47-1.06Q146.60-0.55 145.52-0.10Q144.45 0.35 142.81 0.35L142.81 0.35L142.32 0.35Q141.07 0.35 139.66-0.33L139.66-0.33Q137.07-1.60 136.05-4.57L136.05-4.57Q135.41-6.48 135.41-8.63L135.41-8.63Q135.41-13.18 137.91-15.92Q140.41-18.65 144.78-18.65L144.78-18.65L145.25-18.61L146.15-18.50Q147.20-18.38 147.38-18.38L147.38-18.38Q148.43-18.38 148.63-19.02L148.63-19.02Z M167.53-11.07L167.53-11.07L168.04-11.07L171.77-11.33Q172.45-11.43 172.77-11.43L172.77-11.43Q174.05-11.43 174.56-11.93L174.56-11.93Q174.78-12.15 174.78-12.95L174.78-12.95Q174.78-14.80 173.69-16.03Q172.61-17.25 171.09-17.25L171.09-17.25L170.70-17.25Q168.94-17.25 167.56-15.72Q166.18-14.20 166.18-12.29L166.18-12.29L166.14-12.03L166.14-11.91Q166.14-11.15 166.96-11.15L166.96-11.15Q167.36-11.07 167.53-11.07ZM166.03-7.79L166.03-7.79Q166.03-5.08 167.77-3.52Q169.50-1.95 172.34-1.95L172.34-1.95Q173.51-1.95 175.42-2.83Q177.34-3.71 177.39-3.71L177.39-3.71Q178.08-3.71 178.08-3.07L178.08-3.07Q178.08-1.86 175.36-0.53L175.36-0.53Q173.51 0.37 171.40 0.37L171.40 0.37L170.95 0.37Q166.81 0.37 164.46-2.22Q162.12-4.80 162.12-8.96L162.12-8.96L162.12-9.41Q162.12-9.45 162.12-9.51L162.12-9.51Q162.12-11.23 162.80-12.97L162.80-12.97Q164.25-16.70 167.39-18.11L167.39-18.11Q169.37-18.98 171.01-18.98L171.01-18.98L171.87-18.98Q174.43-18.98 176.32-17.34L176.32-17.34Q177.34-16.46 177.90-15.12Q178.47-13.77 178.47-12.73L178.47-12.73L178.47-12.32Q178.47-10.84 177.26-10.33L177.26-10.33Q176.55-10.04 172.15-9.73Q167.75-9.41 167.20-9.26L167.20-9.26Q166.03-8.93 166.03-7.79Z M194.50-1.72L194.50-1.72L195.11-1.72Q196.00-1.72 197.07-2.28Q198.13-2.83 198.72-3.69Q199.30-4.55 199.30-8.38L199.30-8.38L199.30-12.44Q199.30-14.84 198.66-15.59L198.66-15.59Q197.41-17.03 195.28-17.03L195.28-17.03L194.87-17.03Q192.80-17.03 191.32-15.21Q189.83-13.38 189.83-10.35L189.83-10.35L189.79-9.88L189.79-8.69Q189.79-5.74 191.10-3.73Q192.41-1.72 194.50-1.72ZM199.42-19.02Q199.52-19.34 199.52-22.06Q199.52-24.79 199.19-25.41Q198.86-26.04 197.97-26.44Q197.08-26.84 197.08-27.32L197.08-27.32Q197.08-27.60 197.33-27.79L197.33-27.79Q198.33-28.55 201.06-28.55L201.06-28.55L201.51-28.55Q202.86-28.55 203.09-27.11L203.09-27.11Q203.11-26.99 203.11-15.72Q203.11-4.45 203.27-3.59Q203.43-2.73 204.09-2.27L204.09-2.27Q205.46-1.31 205.46-1.23L205.46-1.23Q205.46-0.74 205.03-0.49L205.03-0.49Q203.97 0.14 202.46 0.14Q200.95 0.14 200.57-0.18Q200.20-0.49 199.83-1.04Q199.46-1.58 199.38-1.58L199.38-1.58Q199.13-1.58 198.26-1.06Q197.39-0.55 196.32-0.10Q195.24 0.35 193.60 0.35L193.60 0.35L193.11 0.35Q191.86 0.35 190.46-0.33L190.46-0.33Q187.86-1.60 186.84-4.57L186.84-4.57Q186.20-6.48 186.20-8.63L186.20-8.63Q186.20-13.18 188.70-15.92Q191.20-18.65 195.57-18.65L195.57-18.65L196.04-18.61L196.94-18.50Q198.00-18.38 198.17-18.38L198.17-18.38Q199.23-18.38 199.42-19.02L199.42-19.02Z M222.11-17.32L222.11-17.32L221.70-17.32Q219.59-17.32 218.13-15.06L218.13-15.06Q216.98-13.28 216.98-9.73L216.98-9.73L216.98-9.49L217.00-9.24Q217.00-3.85 219.89-1.95L219.89-1.95Q220.92-1.29 222.21-1.29L222.21-1.29L222.43-1.31Q224.52-1.31 225.79-3.28Q227.05-5.25 227.05-8.40L227.05-8.40L227.05-9.61Q227.05-13.01 225.66-15.17Q224.26-17.32 222.11-17.32ZM231.21-9.92L231.21-9.92L231.21-8.95Q231.21-7.15 230.47-5.27L230.47-5.27Q229.05-1.62 225.53-0.25L225.53-0.25Q223.83 0.41 222.27 0.41L222.27 0.41L221.96 0.41L221.63 0.39Q217.95 0.39 215.47-2.09L215.47-2.09Q214.34-3.22 213.69-5.12Q213.03-7.01 213.03-8.67L213.03-8.67L213.03-9.63Q213.03-11.46 213.76-13.32Q214.50-15.18 215.64-16.38Q216.78-17.58 218.52-18.29Q220.26-19.00 221.88-19.00L221.88-19.00L222.84-19.00Q226.21-19.00 228.71-16.50L228.71-16.50Q229.79-15.43 230.50-13.61Q231.21-11.80 231.21-9.92Z M238.63-17.15L238.63-17.15Q238.63-18.38 243.03-18.38L243.03-18.38Q244.75-18.38 244.75-17.70L244.75-17.70Q244.75-17.50 244.47-16.99Q244.20-16.48 244.20-16.23L244.20-16.23Q244.20-14.92 247.66-6.21L247.66-6.21Q248.24-4.75 248.65-4.75L248.65-4.75Q248.89-4.75 249.79-6.62Q250.68-8.50 251.66-11.57Q252.64-14.65 252.64-15.52Q252.64-16.39 251.98-17.11Q251.33-17.83 251.33-18.13L251.33-18.13Q251.33-18.67 253.63-18.67L253.63-18.67L254.88-18.67Q257.25-18.67 257.25-17.87L257.25-17.87Q257.25-17.48 256.35-16.49Q255.45-15.51 255.13-14.82Q254.80-14.14 253.45-10.36Q252.09-6.58 251.70-5.53L251.70-5.53Q249.47 0.55 247.87 3.36L247.87 3.36Q244.94 8.55 242.09 8.55L242.09 8.55Q241.02 8.55 240.32 8.06Q239.63 7.56 239.63 7.07L239.63 7.07Q239.63 5.61 240.92 5.61L240.92 5.61L243.20 5.90Q244.41 5.90 245.53 3.89Q246.64 1.88 246.64 0L246.64 0Q246.64-0.92 242.97-8.81L242.97-8.81Q242.19-10.51 241.67-11.74Q241.15-12.97 240.84-13.62Q240.53-14.28 239.58-15.52Q238.63-16.76 238.63-17.15Z M266.05-24.92L266.05-24.92L266.05-25.47Q266.09-25.63 266.09-25.93Q266.09-26.23 266.73-26.88Q267.38-27.52 268.04-27.52L268.04-27.52L268.43-27.58L268.75-27.58Q269.55-27.58 270.24-27.00Q270.93-26.43 270.93-25.72L270.93-25.72L270.99-25.25L270.99-25.08L270.91-24.63Q270.91-24.04 270.20-23.46Q269.49-22.87 268.90-22.87L268.90-22.87L268.43-22.81L268.36-22.81L268.28-22.83L268.12-22.83Q267.96-22.87 267.89-22.87L267.89-22.87Q267.32-22.87 266.69-23.51Q266.05-24.14 266.05-24.92ZM266.79 0.14L265.62 0.14Q264.33 0.14 264.33-0.64L264.33-0.64Q264.33-1.15 265.35-1.61Q266.36-2.07 266.61-2.94Q266.85-3.81 266.85-9.02L266.85-9.02L266.87-9.63L266.87-10.23L266.89-10.84L266.89-12.05L266.83-13.85Q266.83-15.41 266.49-15.82Q266.15-16.23 265.15-16.50Q264.16-16.78 264.16-17.29L264.16-17.29Q264.16-17.70 264.59-17.95L264.59-17.95Q265.95-18.77 269.06-18.77L269.06-18.77Q270.19-18.77 270.39-17.97L270.39-17.97Q270.48-17.56 270.48-10.53Q270.48-3.50 270.70-2.74Q270.91-1.99 272.02-1.55Q273.12-1.11 273.12-0.76L273.12-0.76L273.12-0.55Q273.12 0.02 271.42 0.02L271.42 0.02Q270.84 0.06 270.56 0.06L270.56 0.06L269.68 0.08L268.82 0.08L266.79 0.14Z M288.43-0.86L288.43-0.86Q288.43-0.14 285.91-0.14L285.91-0.14L284.11-0.20Q283.53-0.21 282.36-0.21L282.36-0.21Q280.54-0.21 280.54-1.15L280.54-1.15Q280.54-1.46 281.53-1.93Q282.51-2.40 282.76-2.98Q283-3.55 283-6.09L283-6.09L283-9.53L282.96-10.74L282.96-12.95Q282.96-14.55 282.74-15.26Q282.51-15.98 281.65-16.44Q280.79-16.89 280.79-17.09L280.79-17.09Q280.79-17.68 281.42-17.97L281.42-17.97Q282.67-18.54 284.84-18.54L284.84-18.54Q285.95-18.54 286.36-17.68L286.36-17.68Q287.02-16.33 287.10-16.33L287.10-16.33Q287.16-16.33 287.94-16.88L287.94-16.88Q290.66-18.83 292.84-18.85L292.84-18.85L293.45-18.85Q296.93-18.83 298.33-15.82L298.33-15.82Q299.04-14.30 299.04-6.86L299.04-6.86Q299.04-3.22 299.30-2.71Q299.56-2.21 300.57-1.74Q301.57-1.27 301.57-0.92L301.57-0.92Q301.57-0.10 296.22-0.10L296.22-0.10L295.64-0.10Q293.92-0.10 293.92-0.63Q293.92-1.15 294.52-1.72Q295.13-2.29 295.26-2.62Q295.38-2.95 295.38-4.22Q295.38-5.49 295.36-6.09L295.36-6.09L295.32-7.30L295.32-9.82Q295.32-13.85 294.51-15.22Q293.70-16.60 291.59-16.60L291.59-16.60Q290.54-16.60 289.37-15.99Q288.20-15.37 287.47-14.36Q286.75-13.34 286.75-9.20L286.75-9.20L286.63-5.53Q286.63-3.65 286.91-2.94Q287.18-2.23 287.80-1.66Q288.43-1.09 288.43-0.86Z"/></g>
</svg>
</g></svg></svg>